<mxfile host="app.diagrams.net" modified="2023-11-24T18:41:18.973Z" agent="Mozilla/5.0 (Windows NT 10.0; Win64; x64) AppleWebKit/537.36 (KHTML, like Gecko) Chrome/119.0.0.0 Safari/537.36" etag="7FYQLI37ipoWRQgCdzaz" version="22.1.3" type="device">
  <diagram name="Страница — 1" id="a9Os_H2Cxvek76ipQKEr">
    <mxGraphModel dx="4780" dy="2527" grid="1" gridSize="10" guides="1" tooltips="1" connect="1" arrows="1" fold="1" page="1" pageScale="1" pageWidth="827" pageHeight="1169" math="0" shadow="0">
      <root>
        <mxCell id="0" />
        <mxCell id="1" parent="0" />
        <mxCell id="rHdoyy9JIw3pjANWWtvl-1" value="Выбрать пункт добавить кинофильм" style="rounded=1;whiteSpace=wrap;html=1;" parent="1" vertex="1">
          <mxGeometry x="140" y="10" width="110" height="40" as="geometry" />
        </mxCell>
        <mxCell id="rHdoyy9JIw3pjANWWtvl-2" value="" style="rhombus;whiteSpace=wrap;html=1;" parent="1" vertex="1">
          <mxGeometry x="175" y="320" width="40" height="40" as="geometry" />
        </mxCell>
        <mxCell id="rHdoyy9JIw3pjANWWtvl-3" value="" style="endArrow=classic;html=1;rounded=0;entryX=0.5;entryY=0;entryDx=0;entryDy=0;exitX=0.5;exitY=1;exitDx=0;exitDy=0;" parent="1" source="J7ASVX4LQ0dIEM160n3--3" target="rHdoyy9JIw3pjANWWtvl-2" edge="1">
          <mxGeometry width="50" height="50" relative="1" as="geometry">
            <mxPoint x="195" y="280" as="sourcePoint" />
            <mxPoint x="-5" y="270" as="targetPoint" />
          </mxGeometry>
        </mxCell>
        <mxCell id="rHdoyy9JIw3pjANWWtvl-4" value="Какого типа&lt;br&gt;&amp;nbsp;кинофильм" style="edgeLabel;html=1;align=center;verticalAlign=middle;resizable=0;points=[];" parent="rHdoyy9JIw3pjANWWtvl-3" vertex="1" connectable="0">
          <mxGeometry x="0.0107" relative="1" as="geometry">
            <mxPoint as="offset" />
          </mxGeometry>
        </mxCell>
        <mxCell id="rHdoyy9JIw3pjANWWtvl-5" value="Добавить описание событий" style="rounded=1;whiteSpace=wrap;html=1;" parent="1" vertex="1">
          <mxGeometry x="260" y="400" width="110" height="40" as="geometry" />
        </mxCell>
        <mxCell id="rHdoyy9JIw3pjANWWtvl-6" value="Добавить актеров" style="rounded=1;whiteSpace=wrap;html=1;" parent="1" vertex="1">
          <mxGeometry x="140" y="400" width="110" height="40" as="geometry" />
        </mxCell>
        <mxCell id="rHdoyy9JIw3pjANWWtvl-7" value="Добавить количество сезонов" style="rounded=1;whiteSpace=wrap;html=1;" parent="1" vertex="1">
          <mxGeometry x="20" y="400" width="110" height="40" as="geometry" />
        </mxCell>
        <mxCell id="rHdoyy9JIw3pjANWWtvl-8" value="" style="edgeStyle=segmentEdgeStyle;endArrow=classic;html=1;curved=0;rounded=0;endSize=8;startSize=8;exitX=1;exitY=0.5;exitDx=0;exitDy=0;entryX=0.5;entryY=0;entryDx=0;entryDy=0;" parent="1" source="rHdoyy9JIw3pjANWWtvl-2" target="rHdoyy9JIw3pjANWWtvl-5" edge="1">
          <mxGeometry width="50" height="50" relative="1" as="geometry">
            <mxPoint x="215" y="450" as="sourcePoint" />
            <mxPoint x="295" y="540" as="targetPoint" />
          </mxGeometry>
        </mxCell>
        <mxCell id="rHdoyy9JIw3pjANWWtvl-15" value="Документальный" style="edgeLabel;html=1;align=center;verticalAlign=middle;resizable=0;points=[];" parent="rHdoyy9JIw3pjANWWtvl-8" vertex="1" connectable="0">
          <mxGeometry x="0.5625" relative="1" as="geometry">
            <mxPoint as="offset" />
          </mxGeometry>
        </mxCell>
        <mxCell id="rHdoyy9JIw3pjANWWtvl-9" value="" style="endArrow=classic;html=1;rounded=0;entryX=0.5;entryY=0;entryDx=0;entryDy=0;exitX=0.5;exitY=1;exitDx=0;exitDy=0;" parent="1" source="rHdoyy9JIw3pjANWWtvl-2" target="rHdoyy9JIw3pjANWWtvl-6" edge="1">
          <mxGeometry width="50" height="50" relative="1" as="geometry">
            <mxPoint x="215" y="450" as="sourcePoint" />
            <mxPoint x="265" y="400" as="targetPoint" />
          </mxGeometry>
        </mxCell>
        <mxCell id="rHdoyy9JIw3pjANWWtvl-13" value="Художественный" style="edgeLabel;html=1;align=center;verticalAlign=middle;resizable=0;points=[];" parent="rHdoyy9JIw3pjANWWtvl-9" vertex="1" connectable="0">
          <mxGeometry x="-0.175" relative="1" as="geometry">
            <mxPoint as="offset" />
          </mxGeometry>
        </mxCell>
        <mxCell id="rHdoyy9JIw3pjANWWtvl-10" value="" style="edgeStyle=segmentEdgeStyle;endArrow=classic;html=1;curved=0;rounded=0;endSize=8;startSize=8;entryX=0.5;entryY=0;entryDx=0;entryDy=0;exitX=0;exitY=0.5;exitDx=0;exitDy=0;" parent="1" source="rHdoyy9JIw3pjANWWtvl-2" target="rHdoyy9JIw3pjANWWtvl-7" edge="1">
          <mxGeometry width="50" height="50" relative="1" as="geometry">
            <mxPoint x="160" y="330" as="sourcePoint" />
            <mxPoint x="85" y="390" as="targetPoint" />
          </mxGeometry>
        </mxCell>
        <mxCell id="rHdoyy9JIw3pjANWWtvl-11" value="Сериал" style="edgeLabel;html=1;align=center;verticalAlign=middle;resizable=0;points=[];" parent="rHdoyy9JIw3pjANWWtvl-10" vertex="1" connectable="0">
          <mxGeometry x="0.5063" relative="1" as="geometry">
            <mxPoint as="offset" />
          </mxGeometry>
        </mxCell>
        <mxCell id="rHdoyy9JIw3pjANWWtvl-12" value="Добавить даты выхода серий" style="rounded=1;whiteSpace=wrap;html=1;" parent="1" vertex="1">
          <mxGeometry x="20" y="460" width="110" height="40" as="geometry" />
        </mxCell>
        <mxCell id="rHdoyy9JIw3pjANWWtvl-14" value="Добавить награды" style="rounded=1;whiteSpace=wrap;html=1;" parent="1" vertex="1">
          <mxGeometry x="140" y="460" width="110" height="40" as="geometry" />
        </mxCell>
        <mxCell id="rHdoyy9JIw3pjANWWtvl-16" value="" style="endArrow=classic;html=1;rounded=0;exitX=0.5;exitY=1;exitDx=0;exitDy=0;entryX=0.5;entryY=0;entryDx=0;entryDy=0;" parent="1" source="rHdoyy9JIw3pjANWWtvl-7" target="rHdoyy9JIw3pjANWWtvl-12" edge="1">
          <mxGeometry width="50" height="50" relative="1" as="geometry">
            <mxPoint x="225" y="490" as="sourcePoint" />
            <mxPoint x="275" y="440" as="targetPoint" />
          </mxGeometry>
        </mxCell>
        <mxCell id="rHdoyy9JIw3pjANWWtvl-17" value="" style="endArrow=classic;html=1;rounded=0;entryX=0.5;entryY=0;entryDx=0;entryDy=0;exitX=0.5;exitY=1;exitDx=0;exitDy=0;" parent="1" source="rHdoyy9JIw3pjANWWtvl-6" target="rHdoyy9JIw3pjANWWtvl-14" edge="1">
          <mxGeometry width="50" height="50" relative="1" as="geometry">
            <mxPoint x="225" y="490" as="sourcePoint" />
            <mxPoint x="275" y="440" as="targetPoint" />
          </mxGeometry>
        </mxCell>
        <mxCell id="rHdoyy9JIw3pjANWWtvl-20" value="" style="rhombus;whiteSpace=wrap;html=1;" parent="1" vertex="1">
          <mxGeometry x="175" y="540" width="40" height="40" as="geometry" />
        </mxCell>
        <mxCell id="rHdoyy9JIw3pjANWWtvl-21" value="" style="endArrow=classic;html=1;rounded=0;entryX=0.5;entryY=0;entryDx=0;entryDy=0;exitX=0.5;exitY=1;exitDx=0;exitDy=0;" parent="1" source="rHdoyy9JIw3pjANWWtvl-14" target="rHdoyy9JIw3pjANWWtvl-20" edge="1">
          <mxGeometry width="50" height="50" relative="1" as="geometry">
            <mxPoint x="225" y="490" as="sourcePoint" />
            <mxPoint x="275" y="440" as="targetPoint" />
          </mxGeometry>
        </mxCell>
        <mxCell id="rHdoyy9JIw3pjANWWtvl-22" value="" style="edgeStyle=segmentEdgeStyle;endArrow=classic;html=1;curved=0;rounded=0;endSize=8;startSize=8;entryX=1;entryY=0.5;entryDx=0;entryDy=0;exitX=0.5;exitY=1;exitDx=0;exitDy=0;" parent="1" source="rHdoyy9JIw3pjANWWtvl-5" target="rHdoyy9JIw3pjANWWtvl-20" edge="1">
          <mxGeometry width="50" height="50" relative="1" as="geometry">
            <mxPoint x="315" y="450" as="sourcePoint" />
            <mxPoint x="275" y="440" as="targetPoint" />
            <Array as="points">
              <mxPoint x="315" y="560" />
            </Array>
          </mxGeometry>
        </mxCell>
        <mxCell id="rHdoyy9JIw3pjANWWtvl-23" value="" style="edgeStyle=segmentEdgeStyle;endArrow=classic;html=1;curved=0;rounded=0;endSize=8;startSize=8;exitX=0.5;exitY=1;exitDx=0;exitDy=0;entryX=0;entryY=0.5;entryDx=0;entryDy=0;" parent="1" source="rHdoyy9JIw3pjANWWtvl-12" target="rHdoyy9JIw3pjANWWtvl-20" edge="1">
          <mxGeometry width="50" height="50" relative="1" as="geometry">
            <mxPoint x="75" y="520" as="sourcePoint" />
            <mxPoint x="155" y="640" as="targetPoint" />
            <Array as="points">
              <mxPoint x="75" y="560" />
            </Array>
          </mxGeometry>
        </mxCell>
        <mxCell id="rHdoyy9JIw3pjANWWtvl-24" value="" style="endArrow=classic;html=1;rounded=0;exitX=0.5;exitY=1;exitDx=0;exitDy=0;entryX=0.5;entryY=0;entryDx=0;entryDy=0;" parent="1" source="rHdoyy9JIw3pjANWWtvl-20" target="rHdoyy9JIw3pjANWWtvl-25" edge="1">
          <mxGeometry width="50" height="50" relative="1" as="geometry">
            <mxPoint x="205" y="550" as="sourcePoint" />
            <mxPoint x="195" y="600" as="targetPoint" />
          </mxGeometry>
        </mxCell>
        <mxCell id="rHdoyy9JIw3pjANWWtvl-26" value="Фильм наиболее просматриваемый&lt;br&gt;в своей категории за день" style="edgeLabel;html=1;align=center;verticalAlign=middle;resizable=0;points=[];" parent="rHdoyy9JIw3pjANWWtvl-24" vertex="1" connectable="0">
          <mxGeometry x="-0.1" y="-2" relative="1" as="geometry">
            <mxPoint as="offset" />
          </mxGeometry>
        </mxCell>
        <mxCell id="rHdoyy9JIw3pjANWWtvl-25" value="" style="rhombus;whiteSpace=wrap;html=1;" parent="1" vertex="1">
          <mxGeometry x="175" y="640" width="40" height="40" as="geometry" />
        </mxCell>
        <mxCell id="rHdoyy9JIw3pjANWWtvl-27" value="Вывести сообщение о самом популярном фильме за день" style="rounded=1;whiteSpace=wrap;html=1;fontSize=11;" parent="1" vertex="1">
          <mxGeometry x="250" y="700" width="110" height="40" as="geometry" />
        </mxCell>
        <mxCell id="rHdoyy9JIw3pjANWWtvl-28" value="" style="edgeStyle=segmentEdgeStyle;endArrow=classic;html=1;curved=0;rounded=0;endSize=8;startSize=8;exitX=1;exitY=0.5;exitDx=0;exitDy=0;entryX=0.5;entryY=0;entryDx=0;entryDy=0;" parent="1" source="rHdoyy9JIw3pjANWWtvl-25" target="rHdoyy9JIw3pjANWWtvl-27" edge="1">
          <mxGeometry width="50" height="50" relative="1" as="geometry">
            <mxPoint x="315" y="650" as="sourcePoint" />
            <mxPoint x="415" y="710" as="targetPoint" />
          </mxGeometry>
        </mxCell>
        <mxCell id="rHdoyy9JIw3pjANWWtvl-29" value="Да" style="edgeLabel;html=1;align=center;verticalAlign=middle;resizable=0;points=[];" parent="rHdoyy9JIw3pjANWWtvl-28" vertex="1" connectable="0">
          <mxGeometry x="0.5625" relative="1" as="geometry">
            <mxPoint as="offset" />
          </mxGeometry>
        </mxCell>
        <mxCell id="rHdoyy9JIw3pjANWWtvl-30" value="" style="rhombus;whiteSpace=wrap;html=1;" parent="1" vertex="1">
          <mxGeometry x="175" y="750" width="40" height="40" as="geometry" />
        </mxCell>
        <mxCell id="rHdoyy9JIw3pjANWWtvl-31" value="" style="endArrow=classic;html=1;rounded=0;entryX=0.5;entryY=0;entryDx=0;entryDy=0;exitX=0.5;exitY=1;exitDx=0;exitDy=0;" parent="1" source="rHdoyy9JIw3pjANWWtvl-25" target="rHdoyy9JIw3pjANWWtvl-30" edge="1">
          <mxGeometry width="50" height="50" relative="1" as="geometry">
            <mxPoint x="225" y="700" as="sourcePoint" />
            <mxPoint x="275" y="650" as="targetPoint" />
          </mxGeometry>
        </mxCell>
        <mxCell id="rHdoyy9JIw3pjANWWtvl-32" value="Нет" style="edgeLabel;html=1;align=center;verticalAlign=middle;resizable=0;points=[];" parent="rHdoyy9JIw3pjANWWtvl-31" vertex="1" connectable="0">
          <mxGeometry x="-0.5143" y="1" relative="1" as="geometry">
            <mxPoint as="offset" />
          </mxGeometry>
        </mxCell>
        <mxCell id="rHdoyy9JIw3pjANWWtvl-33" value="" style="edgeStyle=segmentEdgeStyle;endArrow=classic;html=1;curved=0;rounded=0;endSize=8;startSize=8;entryX=1;entryY=0.5;entryDx=0;entryDy=0;exitX=0.5;exitY=1;exitDx=0;exitDy=0;" parent="1" source="rHdoyy9JIw3pjANWWtvl-27" target="rHdoyy9JIw3pjANWWtvl-30" edge="1">
          <mxGeometry width="50" height="50" relative="1" as="geometry">
            <mxPoint x="395" y="649.96" as="sourcePoint" />
            <mxPoint x="295" y="769.96" as="targetPoint" />
            <Array as="points">
              <mxPoint x="305" y="770" />
              <mxPoint x="230" y="770" />
            </Array>
          </mxGeometry>
        </mxCell>
        <mxCell id="rHdoyy9JIw3pjANWWtvl-34" value="" style="shape=waypoint;sketch=0;fillStyle=solid;size=6;pointerEvents=1;points=[];fillColor=none;resizable=0;rotatable=0;perimeter=centerPerimeter;snapToPoint=1;spacing=2;strokeWidth=4;" parent="1" vertex="1">
          <mxGeometry x="60" y="20" width="20" height="20" as="geometry" />
        </mxCell>
        <mxCell id="rHdoyy9JIw3pjANWWtvl-35" value="" style="endArrow=classic;html=1;rounded=0;entryX=0;entryY=0.5;entryDx=0;entryDy=0;" parent="1" source="rHdoyy9JIw3pjANWWtvl-34" target="rHdoyy9JIw3pjANWWtvl-1" edge="1">
          <mxGeometry width="50" height="50" relative="1" as="geometry">
            <mxPoint x="270.39" y="50.120000000000005" as="sourcePoint" />
            <mxPoint x="270.39" y="109.12" as="targetPoint" />
          </mxGeometry>
        </mxCell>
        <mxCell id="rHdoyy9JIw3pjANWWtvl-37" value="" style="ellipse;html=1;shape=endState;fillColor=#000000;strokeColor=#000000;" parent="1" vertex="1">
          <mxGeometry x="180" y="1331" width="30" height="30" as="geometry" />
        </mxCell>
        <mxCell id="rHdoyy9JIw3pjANWWtvl-38" value="" style="endArrow=classic;html=1;rounded=0;entryX=0.5;entryY=0;entryDx=0;entryDy=0;exitX=0.5;exitY=1;exitDx=0;exitDy=0;" parent="1" source="3E1k5IjLdsD5JG_nvnl--1" target="rHdoyy9JIw3pjANWWtvl-37" edge="1">
          <mxGeometry width="50" height="50" relative="1" as="geometry">
            <mxPoint x="195" y="1311" as="sourcePoint" />
            <mxPoint x="145" y="1441" as="targetPoint" />
          </mxGeometry>
        </mxCell>
        <mxCell id="J7ASVX4LQ0dIEM160n3--1" value="Добавить дату создания" style="rounded=1;whiteSpace=wrap;html=1;" parent="1" vertex="1">
          <mxGeometry x="140" y="130" width="110" height="40" as="geometry" />
        </mxCell>
        <mxCell id="J7ASVX4LQ0dIEM160n3--2" value="Добавить название" style="rounded=1;whiteSpace=wrap;html=1;" parent="1" vertex="1">
          <mxGeometry x="140" y="70" width="110" height="40" as="geometry" />
        </mxCell>
        <mxCell id="J7ASVX4LQ0dIEM160n3--3" value="Добавить дату описание" style="rounded=1;whiteSpace=wrap;html=1;" parent="1" vertex="1">
          <mxGeometry x="140" y="190" width="110" height="40" as="geometry" />
        </mxCell>
        <mxCell id="J7ASVX4LQ0dIEM160n3--4" value="" style="endArrow=classic;html=1;rounded=0;entryX=0.5;entryY=0;entryDx=0;entryDy=0;exitX=0.5;exitY=1;exitDx=0;exitDy=0;" parent="1" edge="1">
          <mxGeometry width="50" height="50" relative="1" as="geometry">
            <mxPoint x="194.81" y="110" as="sourcePoint" />
            <mxPoint x="194.81" y="130" as="targetPoint" />
          </mxGeometry>
        </mxCell>
        <mxCell id="J7ASVX4LQ0dIEM160n3--6" value="" style="endArrow=classic;html=1;rounded=0;entryX=0.5;entryY=0;entryDx=0;entryDy=0;exitX=0.5;exitY=1;exitDx=0;exitDy=0;" parent="1" edge="1">
          <mxGeometry width="50" height="50" relative="1" as="geometry">
            <mxPoint x="194.81" y="50" as="sourcePoint" />
            <mxPoint x="194.81" y="70" as="targetPoint" />
          </mxGeometry>
        </mxCell>
        <mxCell id="J7ASVX4LQ0dIEM160n3--7" value="" style="endArrow=classic;html=1;rounded=0;entryX=0.5;entryY=0;entryDx=0;entryDy=0;exitX=0.5;exitY=1;exitDx=0;exitDy=0;" parent="1" edge="1">
          <mxGeometry width="50" height="50" relative="1" as="geometry">
            <mxPoint x="194.81" y="170" as="sourcePoint" />
            <mxPoint x="194.81" y="190" as="targetPoint" />
          </mxGeometry>
        </mxCell>
        <mxCell id="Phg0sfEksBGSR-wfqR97-6" value="" style="endArrow=classic;html=1;rounded=0;exitX=0.5;exitY=1;exitDx=0;exitDy=0;entryX=0.5;entryY=0;entryDx=0;entryDy=0;" parent="1" target="Phg0sfEksBGSR-wfqR97-8" edge="1">
          <mxGeometry width="50" height="50" relative="1" as="geometry">
            <mxPoint x="195" y="790" as="sourcePoint" />
            <mxPoint x="195" y="810" as="targetPoint" />
          </mxGeometry>
        </mxCell>
        <mxCell id="Phg0sfEksBGSR-wfqR97-7" value="Фильм наиболее просматриваемый&lt;br&gt;в своей категории за месяц" style="edgeLabel;html=1;align=center;verticalAlign=middle;resizable=0;points=[];" parent="Phg0sfEksBGSR-wfqR97-6" vertex="1" connectable="0">
          <mxGeometry x="-0.1" y="-2" relative="1" as="geometry">
            <mxPoint as="offset" />
          </mxGeometry>
        </mxCell>
        <mxCell id="Phg0sfEksBGSR-wfqR97-8" value="" style="rhombus;whiteSpace=wrap;html=1;" parent="1" vertex="1">
          <mxGeometry x="175" y="850" width="40" height="40" as="geometry" />
        </mxCell>
        <mxCell id="Phg0sfEksBGSR-wfqR97-9" value="Вывести сообщение о самом популярном фильме за месяц" style="rounded=1;whiteSpace=wrap;html=1;fontSize=11;" parent="1" vertex="1">
          <mxGeometry x="250" y="910" width="110" height="40" as="geometry" />
        </mxCell>
        <mxCell id="Phg0sfEksBGSR-wfqR97-10" value="" style="edgeStyle=segmentEdgeStyle;endArrow=classic;html=1;curved=0;rounded=0;endSize=8;startSize=8;exitX=1;exitY=0.5;exitDx=0;exitDy=0;entryX=0.5;entryY=0;entryDx=0;entryDy=0;" parent="1" source="Phg0sfEksBGSR-wfqR97-8" target="Phg0sfEksBGSR-wfqR97-9" edge="1">
          <mxGeometry width="50" height="50" relative="1" as="geometry">
            <mxPoint x="315" y="860" as="sourcePoint" />
            <mxPoint x="415" y="920" as="targetPoint" />
          </mxGeometry>
        </mxCell>
        <mxCell id="Phg0sfEksBGSR-wfqR97-11" value="Да" style="edgeLabel;html=1;align=center;verticalAlign=middle;resizable=0;points=[];" parent="Phg0sfEksBGSR-wfqR97-10" vertex="1" connectable="0">
          <mxGeometry x="0.5625" relative="1" as="geometry">
            <mxPoint as="offset" />
          </mxGeometry>
        </mxCell>
        <mxCell id="Phg0sfEksBGSR-wfqR97-12" value="" style="rhombus;whiteSpace=wrap;html=1;" parent="1" vertex="1">
          <mxGeometry x="175" y="960" width="40" height="40" as="geometry" />
        </mxCell>
        <mxCell id="Phg0sfEksBGSR-wfqR97-13" value="" style="endArrow=classic;html=1;rounded=0;entryX=0.5;entryY=0;entryDx=0;entryDy=0;exitX=0.5;exitY=1;exitDx=0;exitDy=0;" parent="1" source="Phg0sfEksBGSR-wfqR97-8" target="Phg0sfEksBGSR-wfqR97-12" edge="1">
          <mxGeometry width="50" height="50" relative="1" as="geometry">
            <mxPoint x="225" y="910" as="sourcePoint" />
            <mxPoint x="275" y="860" as="targetPoint" />
          </mxGeometry>
        </mxCell>
        <mxCell id="Phg0sfEksBGSR-wfqR97-14" value="Нет" style="edgeLabel;html=1;align=center;verticalAlign=middle;resizable=0;points=[];" parent="Phg0sfEksBGSR-wfqR97-13" vertex="1" connectable="0">
          <mxGeometry x="-0.5143" y="1" relative="1" as="geometry">
            <mxPoint as="offset" />
          </mxGeometry>
        </mxCell>
        <mxCell id="Phg0sfEksBGSR-wfqR97-15" value="" style="edgeStyle=segmentEdgeStyle;endArrow=classic;html=1;curved=0;rounded=0;endSize=8;startSize=8;entryX=1;entryY=0.5;entryDx=0;entryDy=0;exitX=0.5;exitY=1;exitDx=0;exitDy=0;" parent="1" source="Phg0sfEksBGSR-wfqR97-9" target="Phg0sfEksBGSR-wfqR97-12" edge="1">
          <mxGeometry width="50" height="50" relative="1" as="geometry">
            <mxPoint x="395" y="859.96" as="sourcePoint" />
            <mxPoint x="295" y="979.96" as="targetPoint" />
            <Array as="points">
              <mxPoint x="305" y="980" />
              <mxPoint x="230" y="980" />
            </Array>
          </mxGeometry>
        </mxCell>
        <mxCell id="Phg0sfEksBGSR-wfqR97-16" value="" style="endArrow=classic;html=1;rounded=0;exitX=0.5;exitY=1;exitDx=0;exitDy=0;entryX=0.5;entryY=0;entryDx=0;entryDy=0;" parent="1" target="Phg0sfEksBGSR-wfqR97-18" edge="1">
          <mxGeometry width="50" height="50" relative="1" as="geometry">
            <mxPoint x="195" y="1000" as="sourcePoint" />
            <mxPoint x="195" y="1020" as="targetPoint" />
          </mxGeometry>
        </mxCell>
        <mxCell id="Phg0sfEksBGSR-wfqR97-17" value="Фильм наиболее просматриваемый&lt;br&gt;в своей категории за год" style="edgeLabel;html=1;align=center;verticalAlign=middle;resizable=0;points=[];" parent="Phg0sfEksBGSR-wfqR97-16" vertex="1" connectable="0">
          <mxGeometry x="-0.1" y="-2" relative="1" as="geometry">
            <mxPoint as="offset" />
          </mxGeometry>
        </mxCell>
        <mxCell id="Phg0sfEksBGSR-wfqR97-18" value="" style="rhombus;whiteSpace=wrap;html=1;" parent="1" vertex="1">
          <mxGeometry x="175" y="1060" width="40" height="40" as="geometry" />
        </mxCell>
        <mxCell id="Phg0sfEksBGSR-wfqR97-19" value="Вывести сообщение о самом популярном фильме за год" style="rounded=1;whiteSpace=wrap;html=1;fontSize=11;" parent="1" vertex="1">
          <mxGeometry x="250" y="1120" width="110" height="40" as="geometry" />
        </mxCell>
        <mxCell id="Phg0sfEksBGSR-wfqR97-20" value="" style="edgeStyle=segmentEdgeStyle;endArrow=classic;html=1;curved=0;rounded=0;endSize=8;startSize=8;exitX=1;exitY=0.5;exitDx=0;exitDy=0;entryX=0.5;entryY=0;entryDx=0;entryDy=0;" parent="1" source="Phg0sfEksBGSR-wfqR97-18" target="Phg0sfEksBGSR-wfqR97-19" edge="1">
          <mxGeometry width="50" height="50" relative="1" as="geometry">
            <mxPoint x="315" y="1070" as="sourcePoint" />
            <mxPoint x="415" y="1130" as="targetPoint" />
          </mxGeometry>
        </mxCell>
        <mxCell id="Phg0sfEksBGSR-wfqR97-21" value="Да" style="edgeLabel;html=1;align=center;verticalAlign=middle;resizable=0;points=[];" parent="Phg0sfEksBGSR-wfqR97-20" vertex="1" connectable="0">
          <mxGeometry x="0.5625" relative="1" as="geometry">
            <mxPoint as="offset" />
          </mxGeometry>
        </mxCell>
        <mxCell id="Phg0sfEksBGSR-wfqR97-22" value="" style="rhombus;whiteSpace=wrap;html=1;" parent="1" vertex="1">
          <mxGeometry x="175" y="1170" width="40" height="40" as="geometry" />
        </mxCell>
        <mxCell id="Phg0sfEksBGSR-wfqR97-23" value="" style="endArrow=classic;html=1;rounded=0;entryX=0.5;entryY=0;entryDx=0;entryDy=0;exitX=0.5;exitY=1;exitDx=0;exitDy=0;" parent="1" source="Phg0sfEksBGSR-wfqR97-18" target="Phg0sfEksBGSR-wfqR97-22" edge="1">
          <mxGeometry width="50" height="50" relative="1" as="geometry">
            <mxPoint x="225" y="1120" as="sourcePoint" />
            <mxPoint x="275" y="1070" as="targetPoint" />
          </mxGeometry>
        </mxCell>
        <mxCell id="Phg0sfEksBGSR-wfqR97-24" value="Нет" style="edgeLabel;html=1;align=center;verticalAlign=middle;resizable=0;points=[];" parent="Phg0sfEksBGSR-wfqR97-23" vertex="1" connectable="0">
          <mxGeometry x="-0.5143" y="1" relative="1" as="geometry">
            <mxPoint as="offset" />
          </mxGeometry>
        </mxCell>
        <mxCell id="Phg0sfEksBGSR-wfqR97-25" value="" style="edgeStyle=segmentEdgeStyle;endArrow=classic;html=1;curved=0;rounded=0;endSize=8;startSize=8;entryX=1;entryY=0.5;entryDx=0;entryDy=0;exitX=0.5;exitY=1;exitDx=0;exitDy=0;" parent="1" source="Phg0sfEksBGSR-wfqR97-19" target="Phg0sfEksBGSR-wfqR97-22" edge="1">
          <mxGeometry width="50" height="50" relative="1" as="geometry">
            <mxPoint x="395" y="1069.96" as="sourcePoint" />
            <mxPoint x="295" y="1189.96" as="targetPoint" />
            <Array as="points">
              <mxPoint x="305" y="1190" />
              <mxPoint x="230" y="1190" />
            </Array>
          </mxGeometry>
        </mxCell>
        <mxCell id="3E1k5IjLdsD5JG_nvnl--1" value="Выбрать пункт формы подтвердить" style="rounded=1;whiteSpace=wrap;html=1;fontSize=11;" parent="1" vertex="1">
          <mxGeometry x="140" y="1241" width="110" height="40" as="geometry" />
        </mxCell>
        <mxCell id="3E1k5IjLdsD5JG_nvnl--2" value="" style="endArrow=classic;html=1;rounded=0;entryX=0.5;entryY=0;entryDx=0;entryDy=0;exitX=0.5;exitY=1;exitDx=0;exitDy=0;" parent="1" source="Phg0sfEksBGSR-wfqR97-22" target="3E1k5IjLdsD5JG_nvnl--1" edge="1">
          <mxGeometry width="50" height="50" relative="1" as="geometry">
            <mxPoint x="304.68" y="1240" as="sourcePoint" />
            <mxPoint x="304.68" y="1290" as="targetPoint" />
          </mxGeometry>
        </mxCell>
        <mxCell id="-vRt5Or46PGc0nnXWkZ1-1" value="Форма &amp;nbsp;создания записи фильмов" style="rounded=0;whiteSpace=wrap;html=1;fontStyle=4" parent="1" vertex="1">
          <mxGeometry x="930" y="30" width="120" height="50" as="geometry" />
        </mxCell>
        <mxCell id="-vRt5Or46PGc0nnXWkZ1-2" value="База данных" style="rounded=0;whiteSpace=wrap;html=1;fontStyle=4" parent="1" vertex="1">
          <mxGeometry x="1091" y="30" width="120" height="50" as="geometry" />
        </mxCell>
        <mxCell id="-vRt5Or46PGc0nnXWkZ1-3" value="" style="rounded=0;whiteSpace=wrap;html=1;" parent="1" vertex="1">
          <mxGeometry x="1146" y="80" width="10" height="610" as="geometry" />
        </mxCell>
        <mxCell id="-vRt5Or46PGc0nnXWkZ1-5" value="" style="rounded=0;whiteSpace=wrap;html=1;" parent="1" vertex="1">
          <mxGeometry x="985" y="80" width="10" height="610" as="geometry" />
        </mxCell>
        <mxCell id="-vRt5Or46PGc0nnXWkZ1-6" value="" style="rounded=0;whiteSpace=wrap;html=1;" parent="1" vertex="1">
          <mxGeometry x="640" y="70" width="10" height="620" as="geometry" />
        </mxCell>
        <mxCell id="iHaZbKc7THjHE40Dw3JF-1" value="Пользователь" style="shape=umlActor;verticalLabelPosition=bottom;verticalAlign=top;html=1;outlineConnect=0;" parent="1" vertex="1">
          <mxGeometry x="630" width="30" height="60" as="geometry" />
        </mxCell>
        <mxCell id="-f_5YaJq-49K94avLsPi-1" value="Приложение" style="rounded=0;whiteSpace=wrap;html=1;fontStyle=4" vertex="1" parent="1">
          <mxGeometry x="760" y="30" width="120" height="50" as="geometry" />
        </mxCell>
        <mxCell id="-f_5YaJq-49K94avLsPi-2" value="" style="rounded=0;whiteSpace=wrap;html=1;" vertex="1" parent="1">
          <mxGeometry x="815" y="80" width="10" height="610" as="geometry" />
        </mxCell>
        <mxCell id="2nF1AMQqFkWWgxB1O0v7-2" value="" style="endArrow=classic;html=1;rounded=0;exitX=1.055;exitY=0.19;exitDx=0;exitDy=0;exitPerimeter=0;entryX=0.152;entryY=0.172;entryDx=0;entryDy=0;entryPerimeter=0;" edge="1" parent="1" source="-vRt5Or46PGc0nnXWkZ1-6" target="-f_5YaJq-49K94avLsPi-2">
          <mxGeometry width="50" height="50" relative="1" as="geometry">
            <mxPoint x="840" y="380" as="sourcePoint" />
            <mxPoint x="890" y="330" as="targetPoint" />
          </mxGeometry>
        </mxCell>
        <mxCell id="2nF1AMQqFkWWgxB1O0v7-3" value="Открыть" style="edgeLabel;html=1;align=center;verticalAlign=middle;resizable=0;points=[];" vertex="1" connectable="0" parent="2nF1AMQqFkWWgxB1O0v7-2">
          <mxGeometry x="-0.3009" y="1" relative="1" as="geometry">
            <mxPoint as="offset" />
          </mxGeometry>
        </mxCell>
        <mxCell id="ExKuoMuSUGKlfiJ7eeuP-2" value="" style="endArrow=classic;html=1;rounded=0;entryX=0.1;entryY=0.165;entryDx=0;entryDy=0;entryPerimeter=0;" edge="1" parent="1">
          <mxGeometry width="50" height="50" relative="1" as="geometry">
            <mxPoint x="830" y="190" as="sourcePoint" />
            <mxPoint x="985" y="188" as="targetPoint" />
          </mxGeometry>
        </mxCell>
        <mxCell id="ExKuoMuSUGKlfiJ7eeuP-3" value="Перейти в" style="edgeLabel;html=1;align=center;verticalAlign=middle;resizable=0;points=[];" vertex="1" connectable="0" parent="ExKuoMuSUGKlfiJ7eeuP-2">
          <mxGeometry x="-0.3009" y="1" relative="1" as="geometry">
            <mxPoint as="offset" />
          </mxGeometry>
        </mxCell>
        <mxCell id="-3FuP7O36KxPIKmN8tK0-1" value="" style="endArrow=classic;html=1;rounded=0;" edge="1" parent="1">
          <mxGeometry width="50" height="50" relative="1" as="geometry">
            <mxPoint x="1000" y="189" as="sourcePoint" />
            <mxPoint x="1000" y="260" as="targetPoint" />
            <Array as="points">
              <mxPoint x="1050" y="189" />
              <mxPoint x="1050" y="260" />
            </Array>
          </mxGeometry>
        </mxCell>
        <mxCell id="1hD57B-5RByIS9g2rAID-1" value="Выбор типа фильма" style="edgeLabel;html=1;align=center;verticalAlign=middle;resizable=0;points=[];" vertex="1" connectable="0" parent="-3FuP7O36KxPIKmN8tK0-1">
          <mxGeometry x="0.0739" y="1" relative="1" as="geometry">
            <mxPoint as="offset" />
          </mxGeometry>
        </mxCell>
        <mxCell id="1hD57B-5RByIS9g2rAID-2" value="" style="endArrow=classic;html=1;rounded=0;exitX=1.235;exitY=0.227;exitDx=0;exitDy=0;exitPerimeter=0;" edge="1" parent="1">
          <mxGeometry width="50" height="50" relative="1" as="geometry">
            <mxPoint x="997" y="290.04" as="sourcePoint" />
            <mxPoint x="1000" y="390" as="targetPoint" />
            <Array as="points">
              <mxPoint x="1050" y="290.04" />
              <mxPoint x="1050" y="390" />
            </Array>
          </mxGeometry>
        </mxCell>
        <mxCell id="1hD57B-5RByIS9g2rAID-3" value="Заполнение информации в&lt;br style=&quot;font-size: 9px;&quot;&gt;зависимости от типа фильма&lt;br style=&quot;font-size: 9px;&quot;&gt;&lt;div style=&quot;font-size: 9px;&quot;&gt;(сериал – количество сезонов,&lt;/div&gt;&lt;div style=&quot;font-size: 9px;&quot;&gt;выход новой серии,&lt;/div&gt;&lt;div style=&quot;font-size: 9px;&quot;&gt;&amp;nbsp;художественный – актеры,&lt;/div&gt;&lt;div style=&quot;font-size: 9px;&quot;&gt;&amp;nbsp;награды, документальный&amp;nbsp;&lt;/div&gt;&lt;div style=&quot;font-size: 9px;&quot;&gt;– описание событий и т.д.).&lt;/div&gt;" style="edgeLabel;html=1;align=center;verticalAlign=middle;resizable=0;points=[];fontSize=9;" vertex="1" connectable="0" parent="1hD57B-5RByIS9g2rAID-2">
          <mxGeometry x="0.0739" y="1" relative="1" as="geometry">
            <mxPoint as="offset" />
          </mxGeometry>
        </mxCell>
        <mxCell id="RqGvbMxNvJ7_zXWobZvq-3" value="" style="endArrow=classic;html=1;rounded=0;entryX=0.1;entryY=0.165;entryDx=0;entryDy=0;entryPerimeter=0;" edge="1" parent="1">
          <mxGeometry width="50" height="50" relative="1" as="geometry">
            <mxPoint x="1000" y="420" as="sourcePoint" />
            <mxPoint x="1146" y="419" as="targetPoint" />
          </mxGeometry>
        </mxCell>
        <mxCell id="RqGvbMxNvJ7_zXWobZvq-4" value="Запись в базу&lt;br&gt;данных" style="edgeLabel;html=1;align=center;verticalAlign=middle;resizable=0;points=[];" vertex="1" connectable="0" parent="RqGvbMxNvJ7_zXWobZvq-3">
          <mxGeometry x="-0.3009" y="1" relative="1" as="geometry">
            <mxPoint as="offset" />
          </mxGeometry>
        </mxCell>
        <mxCell id="TpJm15K8wxa0ofJ3zXp7-1" value="" style="endArrow=classic;html=1;rounded=0;dashed=1;exitX=-0.027;exitY=0.781;exitDx=0;exitDy=0;exitPerimeter=0;" edge="1" parent="1">
          <mxGeometry width="50" height="50" relative="1" as="geometry">
            <mxPoint x="1146" y="490" as="sourcePoint" />
            <mxPoint x="830" y="490" as="targetPoint" />
          </mxGeometry>
        </mxCell>
        <mxCell id="TpJm15K8wxa0ofJ3zXp7-2" value="отчет о &lt;br&gt;редактировании" style="edgeLabel;html=1;align=center;verticalAlign=middle;resizable=0;points=[];" vertex="1" connectable="0" parent="TpJm15K8wxa0ofJ3zXp7-1">
          <mxGeometry x="0.1606" y="5" relative="1" as="geometry">
            <mxPoint x="11" y="-27" as="offset" />
          </mxGeometry>
        </mxCell>
        <mxCell id="MTnmURIW9Ri6ESTOH4Vx-1" value="" style="endArrow=classic;html=1;rounded=0;" edge="1" parent="1">
          <mxGeometry width="50" height="50" relative="1" as="geometry">
            <mxPoint x="1161" y="500" as="sourcePoint" />
            <mxPoint x="1161" y="560" as="targetPoint" />
            <Array as="points">
              <mxPoint x="1211" y="500" />
              <mxPoint x="1210" y="560" />
            </Array>
          </mxGeometry>
        </mxCell>
        <mxCell id="MTnmURIW9Ri6ESTOH4Vx-2" value="Проверка на наибольшую&lt;br&gt;популярность в совей категории" style="edgeLabel;html=1;align=center;verticalAlign=middle;resizable=0;points=[];" vertex="1" connectable="0" parent="MTnmURIW9Ri6ESTOH4Vx-1">
          <mxGeometry x="0.0739" y="1" relative="1" as="geometry">
            <mxPoint as="offset" />
          </mxGeometry>
        </mxCell>
        <mxCell id="HKuBbeCge7qiZIz0TAPN-1" value="" style="endArrow=classic;html=1;rounded=0;dashed=1;" edge="1" parent="1">
          <mxGeometry width="50" height="50" relative="1" as="geometry">
            <mxPoint x="1146" y="580" as="sourcePoint" />
            <mxPoint x="830" y="580" as="targetPoint" />
          </mxGeometry>
        </mxCell>
        <mxCell id="HKuBbeCge7qiZIz0TAPN-2" value="Отправить оповещение &lt;br&gt;о наибольшей популярности&lt;br&gt;фильма в своей категории" style="edgeLabel;html=1;align=center;verticalAlign=middle;resizable=0;points=[];" vertex="1" connectable="0" parent="HKuBbeCge7qiZIz0TAPN-1">
          <mxGeometry x="0.1606" y="5" relative="1" as="geometry">
            <mxPoint x="11" y="-27" as="offset" />
          </mxGeometry>
        </mxCell>
        <mxCell id="SOWwWAd67W0CR9lIv3wv-1" value="" style="endArrow=classic;html=1;rounded=0;dashed=1;entryX=1.342;entryY=0.823;entryDx=0;entryDy=0;entryPerimeter=0;" edge="1" parent="1" target="-vRt5Or46PGc0nnXWkZ1-6">
          <mxGeometry width="50" height="50" relative="1" as="geometry">
            <mxPoint x="810" y="580" as="sourcePoint" />
            <mxPoint x="487" y="550" as="targetPoint" />
          </mxGeometry>
        </mxCell>
        <mxCell id="SOWwWAd67W0CR9lIv3wv-2" value="Отправить оповещение &lt;br&gt;о наибольшей популярности&lt;br&gt;фильма в своей категории" style="edgeLabel;html=1;align=center;verticalAlign=middle;resizable=0;points=[];" vertex="1" connectable="0" parent="SOWwWAd67W0CR9lIv3wv-1">
          <mxGeometry x="0.1606" y="5" relative="1" as="geometry">
            <mxPoint x="11" y="-27" as="offset" />
          </mxGeometry>
        </mxCell>
        <mxCell id="EJ34aH0ThEYILr5VlJee-1" value="" style="edgeStyle=orthogonalEdgeStyle;rounded=0;orthogonalLoop=1;jettySize=auto;html=1;" edge="1" parent="1" source="EJ34aH0ThEYILr5VlJee-2" target="EJ34aH0ThEYILr5VlJee-4">
          <mxGeometry relative="1" as="geometry" />
        </mxCell>
        <mxCell id="EJ34aH0ThEYILr5VlJee-2" value="Request" style="strokeWidth=2;html=1;shape=mxgraph.flowchart.start_2;whiteSpace=wrap;" vertex="1" parent="1">
          <mxGeometry x="895" y="797" width="100" height="100" as="geometry" />
        </mxCell>
        <mxCell id="EJ34aH0ThEYILr5VlJee-3" value="" style="rounded=0;whiteSpace=wrap;html=1;" vertex="1" parent="1">
          <mxGeometry x="575.0000000000002" y="993" width="790" height="490" as="geometry" />
        </mxCell>
        <mxCell id="EJ34aH0ThEYILr5VlJee-4" value="" style="whiteSpace=wrap;html=1;aspect=fixed;" vertex="1" parent="1">
          <mxGeometry x="935" y="987" width="20" height="20" as="geometry" />
        </mxCell>
        <mxCell id="EJ34aH0ThEYILr5VlJee-5" value="" style="shape=providedRequiredInterface;html=1;verticalLabelPosition=bottom;sketch=0;" vertex="1" parent="1">
          <mxGeometry x="935" y="1092" width="20" height="20" as="geometry" />
        </mxCell>
        <mxCell id="EJ34aH0ThEYILr5VlJee-6" style="edgeStyle=orthogonalEdgeStyle;rounded=0;orthogonalLoop=1;jettySize=auto;html=1;entryX=0.31;entryY=0.17;entryDx=0;entryDy=0;entryPerimeter=0;endArrow=none;endFill=0;" edge="1" parent="1" source="EJ34aH0ThEYILr5VlJee-4" target="EJ34aH0ThEYILr5VlJee-5">
          <mxGeometry relative="1" as="geometry">
            <Array as="points">
              <mxPoint x="945" y="1095.5" />
            </Array>
          </mxGeometry>
        </mxCell>
        <mxCell id="EJ34aH0ThEYILr5VlJee-7" value="«component»&lt;br&gt;&lt;b&gt;Films Catalog&lt;/b&gt;" style="html=1;dropTarget=0;whiteSpace=wrap;" vertex="1" parent="1">
          <mxGeometry x="1015" y="1057" width="180" height="90" as="geometry" />
        </mxCell>
        <mxCell id="EJ34aH0ThEYILr5VlJee-8" value="" style="shape=module;jettyWidth=8;jettyHeight=4;" vertex="1" parent="EJ34aH0ThEYILr5VlJee-7">
          <mxGeometry x="1" width="20" height="20" relative="1" as="geometry">
            <mxPoint x="-27" y="7" as="offset" />
          </mxGeometry>
        </mxCell>
        <mxCell id="EJ34aH0ThEYILr5VlJee-9" style="edgeStyle=orthogonalEdgeStyle;rounded=0;orthogonalLoop=1;jettySize=auto;html=1;entryX=0.007;entryY=0.438;entryDx=0;entryDy=0;entryPerimeter=0;endArrow=classic;endFill=1;" edge="1" parent="1" source="EJ34aH0ThEYILr5VlJee-5" target="EJ34aH0ThEYILr5VlJee-7">
          <mxGeometry relative="1" as="geometry" />
        </mxCell>
        <mxCell id="EJ34aH0ThEYILr5VlJee-10" value="Request" style="text;align=center;fontStyle=1;verticalAlign=middle;spacingLeft=3;spacingRight=3;strokeColor=none;rotatable=0;points=[[0,0.5],[1,0.5]];portConstraint=eastwest;html=1;" vertex="1" parent="1">
          <mxGeometry x="895" y="1117" width="80" height="26" as="geometry" />
        </mxCell>
        <mxCell id="EJ34aH0ThEYILr5VlJee-11" value="«component»&lt;br&gt;&lt;b&gt;Films Catalog MS &lt;br&gt;SQL&amp;nbsp;&lt;/b&gt;" style="html=1;dropTarget=0;whiteSpace=wrap;" vertex="1" parent="1">
          <mxGeometry x="625" y="1370.5" width="180" height="90" as="geometry" />
        </mxCell>
        <mxCell id="EJ34aH0ThEYILr5VlJee-12" value="" style="shape=module;jettyWidth=8;jettyHeight=4;" vertex="1" parent="EJ34aH0ThEYILr5VlJee-11">
          <mxGeometry x="1" width="20" height="20" relative="1" as="geometry">
            <mxPoint x="-27" y="7" as="offset" />
          </mxGeometry>
        </mxCell>
        <mxCell id="EJ34aH0ThEYILr5VlJee-13" value="«component»&lt;br&gt;&lt;b&gt;DB Service&lt;/b&gt;" style="html=1;dropTarget=0;whiteSpace=wrap;" vertex="1" parent="1">
          <mxGeometry x="1091" y="1377" width="180" height="90" as="geometry" />
        </mxCell>
        <mxCell id="EJ34aH0ThEYILr5VlJee-14" value="" style="shape=module;jettyWidth=8;jettyHeight=4;" vertex="1" parent="EJ34aH0ThEYILr5VlJee-13">
          <mxGeometry x="1" width="20" height="20" relative="1" as="geometry">
            <mxPoint x="-27" y="7" as="offset" />
          </mxGeometry>
        </mxCell>
        <mxCell id="EJ34aH0ThEYILr5VlJee-15" style="edgeStyle=orthogonalEdgeStyle;rounded=0;orthogonalLoop=1;jettySize=auto;html=1;entryX=0.75;entryY=0;entryDx=0;entryDy=0;" edge="1" parent="1" source="EJ34aH0ThEYILr5VlJee-16" target="EJ34aH0ThEYILr5VlJee-44">
          <mxGeometry relative="1" as="geometry">
            <Array as="points">
              <mxPoint x="1115" y="1199.5" />
              <mxPoint x="1162" y="1199.5" />
            </Array>
          </mxGeometry>
        </mxCell>
        <mxCell id="EJ34aH0ThEYILr5VlJee-16" value="" style="shape=providedRequiredInterface;html=1;verticalLabelPosition=bottom;sketch=0;" vertex="1" parent="1">
          <mxGeometry x="1105" y="1169.5" width="20" height="20" as="geometry" />
        </mxCell>
        <mxCell id="EJ34aH0ThEYILr5VlJee-17" style="edgeStyle=orthogonalEdgeStyle;rounded=0;orthogonalLoop=1;jettySize=auto;html=1;entryX=0.34;entryY=0.23;entryDx=0;entryDy=0;entryPerimeter=0;exitX=0.75;exitY=1;exitDx=0;exitDy=0;" edge="1" parent="1" source="EJ34aH0ThEYILr5VlJee-7" target="EJ34aH0ThEYILr5VlJee-16">
          <mxGeometry relative="1" as="geometry">
            <mxPoint x="1115" y="1157.9899999999998" as="sourcePoint" />
            <Array as="points">
              <mxPoint x="1150" y="1159.5" />
              <mxPoint x="1112" y="1159.5" />
            </Array>
          </mxGeometry>
        </mxCell>
        <mxCell id="EJ34aH0ThEYILr5VlJee-18" value="Request" style="text;align=center;fontStyle=1;verticalAlign=middle;spacingLeft=3;spacingRight=3;strokeColor=none;rotatable=0;points=[[0,0.5],[1,0.5]];portConstraint=eastwest;html=1;" vertex="1" parent="1">
          <mxGeometry x="1121" y="1184" width="140" height="26" as="geometry" />
        </mxCell>
        <mxCell id="EJ34aH0ThEYILr5VlJee-19" value="" style="shape=providedRequiredInterface;html=1;verticalLabelPosition=bottom;sketch=0;rotation=0;" vertex="1" parent="1">
          <mxGeometry x="855" y="1335.5" width="20" height="20" as="geometry" />
        </mxCell>
        <mxCell id="EJ34aH0ThEYILr5VlJee-20" value="Internal BD Request" style="text;align=center;fontStyle=1;verticalAlign=middle;spacingLeft=3;spacingRight=3;strokeColor=none;rotatable=0;points=[[0,0.5],[1,0.5]];portConstraint=eastwest;html=1;" vertex="1" parent="1">
          <mxGeometry x="875" y="1301" width="140" height="26" as="geometry" />
        </mxCell>
        <mxCell id="EJ34aH0ThEYILr5VlJee-21" style="edgeStyle=orthogonalEdgeStyle;rounded=0;orthogonalLoop=1;jettySize=auto;html=1;exitX=0;exitY=0.25;exitDx=0;exitDy=0;entryX=1;entryY=0.5;entryDx=0;entryDy=0;entryPerimeter=0;" edge="1" parent="1" source="EJ34aH0ThEYILr5VlJee-13" target="EJ34aH0ThEYILr5VlJee-19">
          <mxGeometry relative="1" as="geometry">
            <mxPoint x="677.94" y="1687" as="sourcePoint" />
            <Array as="points">
              <mxPoint x="1074" y="1399.5" />
              <mxPoint x="1074" y="1379.5" />
              <mxPoint x="905" y="1379.5" />
              <mxPoint x="905" y="1345.5" />
            </Array>
            <mxPoint x="905" y="1343.5" as="targetPoint" />
          </mxGeometry>
        </mxCell>
        <mxCell id="EJ34aH0ThEYILr5VlJee-22" style="edgeStyle=orthogonalEdgeStyle;rounded=0;orthogonalLoop=1;jettySize=auto;html=1;entryX=0.5;entryY=0;entryDx=0;entryDy=0;exitX=0;exitY=0.5;exitDx=0;exitDy=0;exitPerimeter=0;" edge="1" parent="1" source="EJ34aH0ThEYILr5VlJee-19" target="EJ34aH0ThEYILr5VlJee-11">
          <mxGeometry relative="1" as="geometry">
            <mxPoint x="815" y="1349.5" as="targetPoint" />
            <Array as="points">
              <mxPoint x="835" y="1345.5" />
              <mxPoint x="835" y="1359.5" />
              <mxPoint x="715" y="1359.5" />
            </Array>
          </mxGeometry>
        </mxCell>
        <mxCell id="EJ34aH0ThEYILr5VlJee-23" style="edgeStyle=orthogonalEdgeStyle;rounded=0;orthogonalLoop=1;jettySize=auto;html=1;entryX=0;entryY=0.75;entryDx=0;entryDy=0;" edge="1" parent="1" source="EJ34aH0ThEYILr5VlJee-25" target="EJ34aH0ThEYILr5VlJee-13">
          <mxGeometry relative="1" as="geometry">
            <Array as="points">
              <mxPoint x="1015" y="1403.5" />
              <mxPoint x="1015" y="1444.5" />
            </Array>
            <mxPoint x="1075" y="1403.5" as="targetPoint" />
          </mxGeometry>
        </mxCell>
        <mxCell id="EJ34aH0ThEYILr5VlJee-24" value="" style="edgeStyle=orthogonalEdgeStyle;rounded=0;orthogonalLoop=1;jettySize=auto;html=1;exitX=0.5;exitY=1;exitDx=0;exitDy=0;entryX=0;entryY=0.5;entryDx=0;entryDy=0;entryPerimeter=0;" edge="1" parent="1" source="EJ34aH0ThEYILr5VlJee-11" target="EJ34aH0ThEYILr5VlJee-25">
          <mxGeometry relative="1" as="geometry">
            <mxPoint x="766.47" y="1372" as="sourcePoint" />
            <mxPoint x="925.0000000000002" y="1437" as="targetPoint" />
            <Array as="points">
              <mxPoint x="715" y="1467.5" />
              <mxPoint x="965" y="1467.5" />
              <mxPoint x="965" y="1403.5" />
            </Array>
          </mxGeometry>
        </mxCell>
        <mxCell id="EJ34aH0ThEYILr5VlJee-25" value="" style="shape=providedRequiredInterface;html=1;verticalLabelPosition=bottom;sketch=0;" vertex="1" parent="1">
          <mxGeometry x="972" y="1393" width="20" height="20" as="geometry" />
        </mxCell>
        <mxCell id="EJ34aH0ThEYILr5VlJee-26" value="BD Response" style="text;align=center;fontStyle=1;verticalAlign=middle;spacingLeft=3;spacingRight=3;strokeColor=none;rotatable=0;points=[[0,0.5],[1,0.5]];portConstraint=eastwest;html=1;" vertex="1" parent="1">
          <mxGeometry x="955" y="1434.5" width="80" height="26" as="geometry" />
        </mxCell>
        <mxCell id="EJ34aH0ThEYILr5VlJee-27" value="" style="shape=providedRequiredInterface;html=1;verticalLabelPosition=bottom;sketch=0;" vertex="1" parent="1">
          <mxGeometry x="1045" y="1179.5" width="20" height="20" as="geometry" />
        </mxCell>
        <mxCell id="EJ34aH0ThEYILr5VlJee-28" value="Response" style="text;align=center;fontStyle=1;verticalAlign=middle;spacingLeft=3;spacingRight=3;strokeColor=none;rotatable=0;points=[[0,0.5],[1,0.5]];portConstraint=eastwest;html=1;" vertex="1" parent="1">
          <mxGeometry x="980" y="1158" width="80" height="26" as="geometry" />
        </mxCell>
        <mxCell id="EJ34aH0ThEYILr5VlJee-29" style="edgeStyle=orthogonalEdgeStyle;rounded=0;orthogonalLoop=1;jettySize=auto;html=1;entryX=0.621;entryY=0.929;entryDx=0;entryDy=0;entryPerimeter=0;exitX=0.26;exitY=-0.005;exitDx=0;exitDy=0;exitPerimeter=0;" edge="1" parent="1" source="EJ34aH0ThEYILr5VlJee-44" target="EJ34aH0ThEYILr5VlJee-27">
          <mxGeometry relative="1" as="geometry">
            <Array as="points">
              <mxPoint x="1072" y="1214.5" />
              <mxPoint x="1072" y="1209.5" />
              <mxPoint x="1057" y="1209.5" />
            </Array>
            <mxPoint x="1075" y="1329.5" as="sourcePoint" />
          </mxGeometry>
        </mxCell>
        <mxCell id="EJ34aH0ThEYILr5VlJee-30" style="edgeStyle=orthogonalEdgeStyle;rounded=0;orthogonalLoop=1;jettySize=auto;html=1;entryX=0.25;entryY=1;entryDx=0;entryDy=0;" edge="1" parent="1" source="EJ34aH0ThEYILr5VlJee-27" target="EJ34aH0ThEYILr5VlJee-7">
          <mxGeometry relative="1" as="geometry">
            <mxPoint x="1041.3799999999999" y="1157" as="targetPoint" />
          </mxGeometry>
        </mxCell>
        <mxCell id="EJ34aH0ThEYILr5VlJee-31" style="edgeStyle=orthogonalEdgeStyle;rounded=0;orthogonalLoop=1;jettySize=auto;html=1;entryX=1;entryY=0.5;entryDx=0;entryDy=0;" edge="1" parent="1" source="EJ34aH0ThEYILr5VlJee-32" target="EJ34aH0ThEYILr5VlJee-7">
          <mxGeometry relative="1" as="geometry">
            <Array as="points">
              <mxPoint x="1265" y="1223.5" />
              <mxPoint x="1265" y="1102.5" />
              <mxPoint x="1195" y="1102.5" />
            </Array>
          </mxGeometry>
        </mxCell>
        <mxCell id="EJ34aH0ThEYILr5VlJee-32" value="" style="shape=providedRequiredInterface;html=1;verticalLabelPosition=bottom;sketch=0;" vertex="1" parent="1">
          <mxGeometry x="1275" y="1213" width="20" height="20" as="geometry" />
        </mxCell>
        <mxCell id="EJ34aH0ThEYILr5VlJee-33" value="Formatted Response" style="text;align=center;fontStyle=1;verticalAlign=middle;spacingLeft=3;spacingRight=3;strokeColor=none;rotatable=0;points=[[0,0.5],[1,0.5]];portConstraint=eastwest;html=1;" vertex="1" parent="1">
          <mxGeometry x="1325" y="1210" width="80" height="26" as="geometry" />
        </mxCell>
        <mxCell id="EJ34aH0ThEYILr5VlJee-34" style="edgeStyle=orthogonalEdgeStyle;rounded=0;orthogonalLoop=1;jettySize=auto;html=1;entryX=0.767;entryY=0.983;entryDx=0;entryDy=0;entryPerimeter=0;exitX=1;exitY=0.5;exitDx=0;exitDy=0;" edge="1" parent="1" source="EJ34aH0ThEYILr5VlJee-13" target="EJ34aH0ThEYILr5VlJee-32">
          <mxGeometry relative="1" as="geometry">
            <mxPoint x="1195" y="1282" as="sourcePoint" />
          </mxGeometry>
        </mxCell>
        <mxCell id="EJ34aH0ThEYILr5VlJee-35" value="" style="whiteSpace=wrap;html=1;aspect=fixed;" vertex="1" parent="1">
          <mxGeometry x="1130" y="987" width="20" height="20" as="geometry" />
        </mxCell>
        <mxCell id="EJ34aH0ThEYILr5VlJee-36" style="edgeStyle=orthogonalEdgeStyle;rounded=0;orthogonalLoop=1;jettySize=auto;html=1;entryX=0.5;entryY=1;entryDx=0;entryDy=0;" edge="1" parent="1" source="EJ34aH0ThEYILr5VlJee-37" target="EJ34aH0ThEYILr5VlJee-35">
          <mxGeometry relative="1" as="geometry" />
        </mxCell>
        <mxCell id="EJ34aH0ThEYILr5VlJee-37" value="" style="shape=providedRequiredInterface;html=1;verticalLabelPosition=bottom;sketch=0;" vertex="1" parent="1">
          <mxGeometry x="1130" y="1027" width="20" height="20" as="geometry" />
        </mxCell>
        <mxCell id="EJ34aH0ThEYILr5VlJee-38" style="edgeStyle=orthogonalEdgeStyle;rounded=0;orthogonalLoop=1;jettySize=auto;html=1;entryX=0;entryY=0.5;entryDx=0;entryDy=0;entryPerimeter=0;" edge="1" parent="1" source="EJ34aH0ThEYILr5VlJee-7" target="EJ34aH0ThEYILr5VlJee-37">
          <mxGeometry relative="1" as="geometry" />
        </mxCell>
        <mxCell id="EJ34aH0ThEYILr5VlJee-39" value="Formatted Response" style="text;align=center;fontStyle=1;verticalAlign=middle;spacingLeft=3;spacingRight=3;strokeColor=none;rotatable=0;points=[[0,0.5],[1,0.5]];portConstraint=eastwest;html=1;" vertex="1" parent="1">
          <mxGeometry x="1180" y="1024" width="80" height="26" as="geometry" />
        </mxCell>
        <mxCell id="EJ34aH0ThEYILr5VlJee-40" style="edgeStyle=orthogonalEdgeStyle;rounded=0;orthogonalLoop=1;jettySize=auto;html=1;entryX=0.5;entryY=0;entryDx=0;entryDy=0;" edge="1" parent="1" source="EJ34aH0ThEYILr5VlJee-41" target="EJ34aH0ThEYILr5VlJee-35">
          <mxGeometry relative="1" as="geometry" />
        </mxCell>
        <mxCell id="EJ34aH0ThEYILr5VlJee-41" value="" style="shape=requiredInterface;html=1;verticalLabelPosition=bottom;sketch=0;rotation=90;" vertex="1" parent="1">
          <mxGeometry x="1140" y="887" width="10" height="20" as="geometry" />
        </mxCell>
        <mxCell id="EJ34aH0ThEYILr5VlJee-42" value="Response" style="text;align=center;fontStyle=1;verticalAlign=middle;spacingLeft=3;spacingRight=3;strokeColor=none;rotatable=0;points=[[0,0.5],[1,0.5]];portConstraint=eastwest;html=1;" vertex="1" parent="1">
          <mxGeometry x="1105" y="857" width="80" height="26" as="geometry" />
        </mxCell>
        <mxCell id="EJ34aH0ThEYILr5VlJee-43" value="Сервер приложения" style="text;html=1;strokeColor=none;fillColor=none;align=center;verticalAlign=middle;whiteSpace=wrap;rounded=0;" vertex="1" parent="1">
          <mxGeometry x="690" y="1007" width="130" height="30" as="geometry" />
        </mxCell>
        <mxCell id="EJ34aH0ThEYILr5VlJee-44" value="«component»&lt;br&gt;&lt;b&gt;Apache Server&lt;/b&gt;" style="html=1;dropTarget=0;whiteSpace=wrap;" vertex="1" parent="1">
          <mxGeometry x="1027.5" y="1214.5" width="180" height="90" as="geometry" />
        </mxCell>
        <mxCell id="EJ34aH0ThEYILr5VlJee-45" value="" style="shape=module;jettyWidth=8;jettyHeight=4;" vertex="1" parent="EJ34aH0ThEYILr5VlJee-44">
          <mxGeometry x="1" width="20" height="20" relative="1" as="geometry">
            <mxPoint x="-27" y="7" as="offset" />
          </mxGeometry>
        </mxCell>
        <mxCell id="EJ34aH0ThEYILr5VlJee-46" value="" style="shape=providedRequiredInterface;html=1;verticalLabelPosition=bottom;sketch=0;" vertex="1" parent="1">
          <mxGeometry x="1171" y="1315.5" width="20" height="20" as="geometry" />
        </mxCell>
        <mxCell id="EJ34aH0ThEYILr5VlJee-47" style="edgeStyle=orthogonalEdgeStyle;rounded=0;orthogonalLoop=1;jettySize=auto;html=1;entryX=0;entryY=0.5;entryDx=0;entryDy=0;entryPerimeter=0;exitX=0.75;exitY=1;exitDx=0;exitDy=0;" edge="1" parent="1" source="EJ34aH0ThEYILr5VlJee-44" target="EJ34aH0ThEYILr5VlJee-46">
          <mxGeometry relative="1" as="geometry">
            <mxPoint x="1159.1" y="1308.9" as="sourcePoint" />
            <mxPoint x="1121.1" y="1335.9" as="targetPoint" />
            <Array as="points">
              <mxPoint x="1159" y="1304.5" />
              <mxPoint x="1159" y="1325.5" />
            </Array>
          </mxGeometry>
        </mxCell>
        <mxCell id="EJ34aH0ThEYILr5VlJee-48" style="edgeStyle=orthogonalEdgeStyle;rounded=0;orthogonalLoop=1;jettySize=auto;html=1;entryX=0.75;entryY=0;entryDx=0;entryDy=0;exitX=1;exitY=0.5;exitDx=0;exitDy=0;exitPerimeter=0;" edge="1" parent="1" source="EJ34aH0ThEYILr5VlJee-46" target="EJ34aH0ThEYILr5VlJee-13">
          <mxGeometry relative="1" as="geometry">
            <mxPoint x="1138" y="1335.5" as="sourcePoint" />
            <mxPoint x="1146" y="1356.5" as="targetPoint" />
            <Array as="points">
              <mxPoint x="1225" y="1325.5" />
              <mxPoint x="1225" y="1356.5" />
              <mxPoint x="1226" y="1356.5" />
            </Array>
          </mxGeometry>
        </mxCell>
        <mxCell id="EJ34aH0ThEYILr5VlJee-49" value="Request" style="text;align=center;fontStyle=1;verticalAlign=middle;spacingLeft=3;spacingRight=3;strokeColor=none;rotatable=0;points=[[0,0.5],[1,0.5]];portConstraint=eastwest;html=1;" vertex="1" parent="1">
          <mxGeometry x="1150" y="1332.5" width="140" height="26" as="geometry" />
        </mxCell>
        <mxCell id="EJ34aH0ThEYILr5VlJee-50" value="" style="shape=providedRequiredInterface;html=1;verticalLabelPosition=bottom;sketch=0;" vertex="1" parent="1">
          <mxGeometry x="1122.5" y="1324.5" width="20" height="20" as="geometry" />
        </mxCell>
        <mxCell id="EJ34aH0ThEYILr5VlJee-51" style="edgeStyle=orthogonalEdgeStyle;rounded=0;orthogonalLoop=1;jettySize=auto;html=1;entryX=0.617;entryY=0.975;entryDx=0;entryDy=0;entryPerimeter=0;exitX=0.25;exitY=0;exitDx=0;exitDy=0;" edge="1" parent="1" source="EJ34aH0ThEYILr5VlJee-13" target="EJ34aH0ThEYILr5VlJee-50">
          <mxGeometry relative="1" as="geometry">
            <Array as="points">
              <mxPoint x="1136" y="1355.5" />
              <mxPoint x="1135" y="1355.5" />
            </Array>
            <mxPoint x="1090.7" y="1355.92" as="sourcePoint" />
            <mxPoint x="1073.7" y="1339.92" as="targetPoint" />
          </mxGeometry>
        </mxCell>
        <mxCell id="EJ34aH0ThEYILr5VlJee-52" style="edgeStyle=orthogonalEdgeStyle;rounded=0;orthogonalLoop=1;jettySize=auto;html=1;exitX=1;exitY=0.5;exitDx=0;exitDy=0;exitPerimeter=0;entryX=0.25;entryY=1;entryDx=0;entryDy=0;" edge="1" parent="1" source="EJ34aH0ThEYILr5VlJee-50" target="EJ34aH0ThEYILr5VlJee-44">
          <mxGeometry relative="1" as="geometry">
            <mxPoint x="1091" y="1317.5" as="targetPoint" />
            <mxPoint x="1086" y="1349.5" as="sourcePoint" />
            <Array as="points">
              <mxPoint x="1145" y="1334.5" />
              <mxPoint x="1145" y="1319.5" />
              <mxPoint x="1072" y="1319.5" />
            </Array>
          </mxGeometry>
        </mxCell>
        <mxCell id="EJ34aH0ThEYILr5VlJee-53" value="Response" style="text;align=center;fontStyle=1;verticalAlign=middle;spacingLeft=3;spacingRight=3;strokeColor=none;rotatable=0;points=[[0,0.5],[1,0.5]];portConstraint=eastwest;html=1;" vertex="1" parent="1">
          <mxGeometry x="1045" y="1335.5" width="80" height="26" as="geometry" />
        </mxCell>
        <mxCell id="8iJ2fG0a0mOF1R5p2haa-1" value="" style="rounded=0;whiteSpace=wrap;html=1;" vertex="1" parent="1">
          <mxGeometry x="141" y="2410" width="2200" height="740" as="geometry" />
        </mxCell>
        <mxCell id="8iJ2fG0a0mOF1R5p2haa-2" value="" style="rounded=0;whiteSpace=wrap;html=1;" vertex="1" parent="1">
          <mxGeometry x="191" y="2595" width="2080" height="480" as="geometry" />
        </mxCell>
        <mxCell id="8iJ2fG0a0mOF1R5p2haa-3" value="" style="rounded=0;whiteSpace=wrap;html=1;" vertex="1" parent="1">
          <mxGeometry x="1481" y="2670" width="720" height="320" as="geometry" />
        </mxCell>
        <mxCell id="8iJ2fG0a0mOF1R5p2haa-4" value="&amp;lt;&amp;lt;executing environment&amp;gt;&amp;gt;&lt;br&gt;Linux Server&amp;nbsp;" style="text;html=1;strokeColor=none;fillColor=none;align=center;verticalAlign=middle;whiteSpace=wrap;rounded=0;" vertex="1" parent="1">
          <mxGeometry x="1532.7318367346943" y="2690" width="618.265306122449" height="30" as="geometry" />
        </mxCell>
        <mxCell id="8iJ2fG0a0mOF1R5p2haa-5" value="&amp;lt;&amp;lt;executing environment&amp;gt;&amp;gt;&lt;br&gt;Linux" style="text;html=1;strokeColor=none;fillColor=none;align=center;verticalAlign=middle;whiteSpace=wrap;rounded=0;" vertex="1" parent="1">
          <mxGeometry x="1126" y="2610" width="190" height="30" as="geometry" />
        </mxCell>
        <mxCell id="8iJ2fG0a0mOF1R5p2haa-6" value="&lt;div style=&quot;&quot;&gt;&lt;br&gt;&lt;/div&gt;" style="shape=cube;whiteSpace=wrap;html=1;boundedLbl=1;backgroundOutline=1;darkOpacity=0.05;darkOpacity2=0.1;align=center;" vertex="1" parent="1">
          <mxGeometry x="1513.2420408163262" y="2790" width="655.5102040816325" height="170" as="geometry" />
        </mxCell>
        <mxCell id="8iJ2fG0a0mOF1R5p2haa-7" value="&lt;div style=&quot;border-color: var(--border-color);&quot;&gt;&amp;lt;&amp;lt;device&amp;gt;&amp;gt;&lt;/div&gt;&lt;div style=&quot;border-color: var(--border-color);&quot;&gt;Films Catalog Database&lt;/div&gt;" style="text;html=1;strokeColor=none;fillColor=none;align=center;verticalAlign=middle;whiteSpace=wrap;rounded=0;" vertex="1" parent="1">
          <mxGeometry x="1692.017551020408" y="2820" width="327.75510204081627" height="30" as="geometry" />
        </mxCell>
        <mxCell id="8iJ2fG0a0mOF1R5p2haa-8" value="&amp;lt;&amp;lt;executing environment&amp;gt;&amp;gt; &lt;br&gt;PostgreSQL" style="shape=cube;whiteSpace=wrap;html=1;boundedLbl=1;backgroundOutline=1;darkOpacity=0.05;darkOpacity2=0.1;" vertex="1" parent="1">
          <mxGeometry x="1602.6297959183676" y="2870" width="536.3265306122448" height="80" as="geometry" />
        </mxCell>
        <mxCell id="8iJ2fG0a0mOF1R5p2haa-9" value="" style="rounded=0;whiteSpace=wrap;html=1;" vertex="1" parent="1">
          <mxGeometry x="252.47058823529414" y="2790" width="579.7058823529411" height="240" as="geometry" />
        </mxCell>
        <mxCell id="8iJ2fG0a0mOF1R5p2haa-10" value="" style="rounded=0;whiteSpace=wrap;html=1;" vertex="1" parent="1">
          <mxGeometry x="231" y="2660" width="720" height="380" as="geometry" />
        </mxCell>
        <mxCell id="8iJ2fG0a0mOF1R5p2haa-11" value="&amp;lt;&amp;lt;executing environment&amp;gt;&amp;gt;&lt;br&gt;Linux Server" style="text;html=1;strokeColor=none;fillColor=none;align=center;verticalAlign=middle;whiteSpace=wrap;rounded=0;" vertex="1" parent="1">
          <mxGeometry x="282.73183673469384" y="2680" width="618.265306122449" height="30" as="geometry" />
        </mxCell>
        <mxCell id="8iJ2fG0a0mOF1R5p2haa-12" value="" style="rounded=0;whiteSpace=wrap;html=1;" vertex="1" parent="1">
          <mxGeometry x="281" y="2740" width="620" height="270" as="geometry" />
        </mxCell>
        <mxCell id="8iJ2fG0a0mOF1R5p2haa-13" value="&lt;div style=&quot;&quot;&gt;&lt;br&gt;&lt;/div&gt;" style="shape=cube;whiteSpace=wrap;html=1;boundedLbl=1;backgroundOutline=1;darkOpacity=0.05;darkOpacity2=0.1;align=center;" vertex="1" parent="1">
          <mxGeometry x="341" y="2820" width="236.12" height="120" as="geometry" />
        </mxCell>
        <mxCell id="8iJ2fG0a0mOF1R5p2haa-14" value="&lt;div style=&quot;border-color: var(--border-color);&quot;&gt;&amp;lt;&amp;lt;device&amp;gt;&amp;gt;&lt;/div&gt;&lt;div style=&quot;border-color: var(--border-color);&quot;&gt;Films Application&lt;/div&gt;" style="text;html=1;strokeColor=none;fillColor=none;align=center;verticalAlign=middle;whiteSpace=wrap;rounded=0;" vertex="1" parent="1">
          <mxGeometry x="391.00285714285747" y="2870" width="152.6530612244898" height="30" as="geometry" />
        </mxCell>
        <mxCell id="8iJ2fG0a0mOF1R5p2haa-15" value="&amp;lt;&amp;lt;device&amp;gt;&amp;gt; &amp;nbsp;Application Server" style="text;html=1;strokeColor=none;fillColor=none;align=center;verticalAlign=middle;whiteSpace=wrap;rounded=0;" vertex="1" parent="1">
          <mxGeometry x="516" y="2760" width="130" height="30" as="geometry" />
        </mxCell>
        <mxCell id="8iJ2fG0a0mOF1R5p2haa-16" value="&amp;lt;&amp;lt;executing environment&amp;gt;&amp;gt; &lt;br&gt;Apache Server" style="shape=cube;whiteSpace=wrap;html=1;boundedLbl=1;backgroundOutline=1;darkOpacity=0.05;darkOpacity2=0.1;" vertex="1" parent="1">
          <mxGeometry x="611" y="2810" width="250" height="150" as="geometry" />
        </mxCell>
        <mxCell id="8iJ2fG0a0mOF1R5p2haa-17" style="edgeStyle=orthogonalEdgeStyle;rounded=0;orthogonalLoop=1;jettySize=auto;html=1;" edge="1" parent="1" source="8iJ2fG0a0mOF1R5p2haa-21" target="8iJ2fG0a0mOF1R5p2haa-10">
          <mxGeometry relative="1" as="geometry" />
        </mxCell>
        <mxCell id="8iJ2fG0a0mOF1R5p2haa-18" value="TCP" style="edgeLabel;html=1;align=center;verticalAlign=middle;resizable=0;points=[];" vertex="1" connectable="0" parent="8iJ2fG0a0mOF1R5p2haa-17">
          <mxGeometry x="-0.3506" y="3" relative="1" as="geometry">
            <mxPoint as="offset" />
          </mxGeometry>
        </mxCell>
        <mxCell id="8iJ2fG0a0mOF1R5p2haa-19" style="edgeStyle=orthogonalEdgeStyle;rounded=0;orthogonalLoop=1;jettySize=auto;html=1;" edge="1" parent="1" source="8iJ2fG0a0mOF1R5p2haa-21" target="8iJ2fG0a0mOF1R5p2haa-25">
          <mxGeometry relative="1" as="geometry" />
        </mxCell>
        <mxCell id="8iJ2fG0a0mOF1R5p2haa-20" value="TCP" style="edgeLabel;html=1;align=center;verticalAlign=middle;resizable=0;points=[];" vertex="1" connectable="0" parent="8iJ2fG0a0mOF1R5p2haa-19">
          <mxGeometry x="0.185" y="-3" relative="1" as="geometry">
            <mxPoint x="-5" y="-28" as="offset" />
          </mxGeometry>
        </mxCell>
        <mxCell id="8iJ2fG0a0mOF1R5p2haa-21" value="&amp;lt;&amp;lt;device&amp;gt;&amp;gt; &lt;br&gt;Films service" style="shape=cube;whiteSpace=wrap;html=1;boundedLbl=1;backgroundOutline=1;darkOpacity=0.05;darkOpacity2=0.1;" vertex="1" parent="1">
          <mxGeometry x="1051" y="2670" width="120" height="80" as="geometry" />
        </mxCell>
        <mxCell id="8iJ2fG0a0mOF1R5p2haa-22" style="edgeStyle=orthogonalEdgeStyle;rounded=0;orthogonalLoop=1;jettySize=auto;html=1;" edge="1" parent="1" source="8iJ2fG0a0mOF1R5p2haa-25" target="8iJ2fG0a0mOF1R5p2haa-3">
          <mxGeometry relative="1" as="geometry" />
        </mxCell>
        <mxCell id="8iJ2fG0a0mOF1R5p2haa-23" value="TCP" style="edgeLabel;html=1;align=center;verticalAlign=middle;resizable=0;points=[];" vertex="1" connectable="0" parent="8iJ2fG0a0mOF1R5p2haa-22">
          <mxGeometry x="-0.19" y="7" relative="1" as="geometry">
            <mxPoint y="-1" as="offset" />
          </mxGeometry>
        </mxCell>
        <mxCell id="8iJ2fG0a0mOF1R5p2haa-24" style="edgeStyle=orthogonalEdgeStyle;rounded=0;orthogonalLoop=1;jettySize=auto;html=1;" edge="1" parent="1" source="8iJ2fG0a0mOF1R5p2haa-25" target="8iJ2fG0a0mOF1R5p2haa-21">
          <mxGeometry relative="1" as="geometry" />
        </mxCell>
        <mxCell id="8iJ2fG0a0mOF1R5p2haa-25" value="&amp;lt;&amp;lt;device&amp;gt;&amp;gt; &lt;br&gt;Films DB service" style="shape=cube;whiteSpace=wrap;html=1;boundedLbl=1;backgroundOutline=1;darkOpacity=0.05;darkOpacity2=0.1;" vertex="1" parent="1">
          <mxGeometry x="1271" y="2680" width="120" height="80" as="geometry" />
        </mxCell>
        <mxCell id="8iJ2fG0a0mOF1R5p2haa-26" value="Сервер приложения" style="text;html=1;strokeColor=none;fillColor=none;align=center;verticalAlign=middle;whiteSpace=wrap;rounded=0;" vertex="1" parent="1">
          <mxGeometry x="1141" y="2445" width="130" height="30" as="geometry" />
        </mxCell>
        <mxCell id="8iJ2fG0a0mOF1R5p2haa-27" value="" style="rounded=0;whiteSpace=wrap;html=1;" vertex="1" parent="1">
          <mxGeometry x="601" y="1600" width="460" height="510" as="geometry" />
        </mxCell>
        <mxCell id="8iJ2fG0a0mOF1R5p2haa-28" value="&amp;lt;&amp;lt;device&amp;gt;&amp;gt;&lt;br&gt;Мобильный Клиент" style="text;html=1;strokeColor=none;fillColor=none;align=center;verticalAlign=middle;whiteSpace=wrap;rounded=0;" vertex="1" parent="1">
          <mxGeometry x="741" y="1620" width="180" height="30" as="geometry" />
        </mxCell>
        <mxCell id="8iJ2fG0a0mOF1R5p2haa-29" value="" style="rounded=0;whiteSpace=wrap;html=1;" vertex="1" parent="1">
          <mxGeometry x="641" y="1690" width="400" height="380" as="geometry" />
        </mxCell>
        <mxCell id="8iJ2fG0a0mOF1R5p2haa-30" value="&amp;lt;&amp;lt;executing environment&amp;gt;&amp;gt; Android OS" style="text;html=1;strokeColor=none;fillColor=none;align=center;verticalAlign=middle;whiteSpace=wrap;rounded=0;" vertex="1" parent="1">
          <mxGeometry x="741" y="1700" width="180" height="30" as="geometry" />
        </mxCell>
        <mxCell id="8iJ2fG0a0mOF1R5p2haa-31" value="&amp;lt;&amp;lt;device&amp;gt;&amp;gt;&lt;br&gt;Client Application" style="shape=cube;whiteSpace=wrap;html=1;boundedLbl=1;backgroundOutline=1;darkOpacity=0.05;darkOpacity2=0.1;" vertex="1" parent="1">
          <mxGeometry x="721" y="1840" width="240" height="160" as="geometry" />
        </mxCell>
        <mxCell id="8iJ2fG0a0mOF1R5p2haa-32" style="edgeStyle=orthogonalEdgeStyle;rounded=0;orthogonalLoop=1;jettySize=auto;html=1;endArrow=none;endFill=0;exitX=0.5;exitY=1;exitDx=0;exitDy=0;" edge="1" parent="1" source="8iJ2fG0a0mOF1R5p2haa-27" target="8iJ2fG0a0mOF1R5p2haa-1">
          <mxGeometry relative="1" as="geometry">
            <Array as="points">
              <mxPoint x="831" y="2250" />
              <mxPoint x="941" y="2250" />
            </Array>
          </mxGeometry>
        </mxCell>
        <mxCell id="8iJ2fG0a0mOF1R5p2haa-33" value="JSON" style="edgeLabel;html=1;align=center;verticalAlign=middle;resizable=0;points=[];" vertex="1" connectable="0" parent="8iJ2fG0a0mOF1R5p2haa-32">
          <mxGeometry x="0.0313" y="-2" relative="1" as="geometry">
            <mxPoint y="-1" as="offset" />
          </mxGeometry>
        </mxCell>
        <mxCell id="8iJ2fG0a0mOF1R5p2haa-34" value="" style="rounded=0;whiteSpace=wrap;html=1;" vertex="1" parent="1">
          <mxGeometry x="1131" y="1600" width="460" height="510" as="geometry" />
        </mxCell>
        <mxCell id="8iJ2fG0a0mOF1R5p2haa-35" value="&amp;lt;&amp;lt;device&amp;gt;&amp;gt;&lt;br&gt;Мобильный Клиент" style="text;html=1;strokeColor=none;fillColor=none;align=center;verticalAlign=middle;whiteSpace=wrap;rounded=0;" vertex="1" parent="1">
          <mxGeometry x="1271" y="1620" width="180" height="30" as="geometry" />
        </mxCell>
        <mxCell id="8iJ2fG0a0mOF1R5p2haa-36" value="" style="rounded=0;whiteSpace=wrap;html=1;" vertex="1" parent="1">
          <mxGeometry x="1171" y="1690" width="400" height="380" as="geometry" />
        </mxCell>
        <mxCell id="8iJ2fG0a0mOF1R5p2haa-37" value="&amp;lt;&amp;lt;executing environment&amp;gt;&amp;gt; &lt;br&gt;iOS" style="text;html=1;strokeColor=none;fillColor=none;align=center;verticalAlign=middle;whiteSpace=wrap;rounded=0;" vertex="1" parent="1">
          <mxGeometry x="1271" y="1700" width="180" height="30" as="geometry" />
        </mxCell>
        <mxCell id="8iJ2fG0a0mOF1R5p2haa-38" value="&amp;lt;&amp;lt;device&amp;gt;&amp;gt;&lt;br&gt;Client Application" style="shape=cube;whiteSpace=wrap;html=1;boundedLbl=1;backgroundOutline=1;darkOpacity=0.05;darkOpacity2=0.1;" vertex="1" parent="1">
          <mxGeometry x="1251" y="1840" width="240" height="160" as="geometry" />
        </mxCell>
        <mxCell id="8iJ2fG0a0mOF1R5p2haa-39" style="edgeStyle=orthogonalEdgeStyle;rounded=0;orthogonalLoop=1;jettySize=auto;html=1;endArrow=none;endFill=0;exitX=0.5;exitY=1;exitDx=0;exitDy=0;" edge="1" parent="1" source="8iJ2fG0a0mOF1R5p2haa-34" target="8iJ2fG0a0mOF1R5p2haa-1">
          <mxGeometry relative="1" as="geometry">
            <mxPoint x="1101" y="2670" as="targetPoint" />
            <Array as="points">
              <mxPoint x="1361" y="2250" />
              <mxPoint x="1081" y="2250" />
            </Array>
          </mxGeometry>
        </mxCell>
        <mxCell id="8iJ2fG0a0mOF1R5p2haa-40" value="JSON" style="edgeLabel;html=1;align=center;verticalAlign=middle;resizable=0;points=[];" vertex="1" connectable="0" parent="8iJ2fG0a0mOF1R5p2haa-39">
          <mxGeometry x="0.1505" relative="1" as="geometry">
            <mxPoint as="offset" />
          </mxGeometry>
        </mxCell>
      </root>
    </mxGraphModel>
  </diagram>
</mxfile>
